<svg id="Layer_1" data-name="Layer 1" xmlns="http://www.w3.org/2000/svg" width="277.29" height="274.84" viewBox="0 0 277.29 274.84"><defs><style>.cls-1{fill:#1d1d1d;}</style></defs><title>logo_petrograd</title><path class="cls-1" d="M268.16,124.09c.12.88.21,1.74.25,2.39l.08,1.06s.06,0,.09-.06C268.46,126.24,268.35,125.13,268.16,124.09Z"/><path class="cls-1" d="M266.57,120.89l.14,1.07a.81.81,0,0,1,.05-.22Z"/><path class="cls-1" d="M268.59,127.48c.34-.29.58-1.77,1.07,0l.29,3.85c.12,1.44.1,2.9.14,3.87.24,1.93.39,0,.59,0a29.8,29.8,0,0,0,.19,3.88c.27,1.25.42-.81.37-4.61-.27-2.09-.77-5-1.18-7.76-.18-1.4-.48-2.76-.72-4l-.67-3.21c-.39-1.73-.74-2.48-.7-1.44,0,.52.06,1.5.17,3l.22,2.75.14,1.72Z"/><path class="cls-1" d="M265.67,112.49c.58,3.29,1.24,6.57,1.59,9.91.35,1,.76,2.39.85,1.35A77.55,77.55,0,0,0,265.67,112.49Z"/><path class="cls-1" d="M265.12,166.08c-.06,0,0-.18.35-1.86-.13.65-.2,1.26-.35,1.86,0,0,.15-.06,0,.79a150.75,150.75,0,0,0,2.56-21.73l-.24-2.79A135.22,135.22,0,0,1,264,169.52a151.06,151.06,0,0,1-7.59,23.73c1.16-2.44,2-4.77,2.88-7s1.51-4.38,2.24-6.51c.37-1.06.67-2.14,1-3.24l.91-3.31C264.08,171,264.52,168.6,265.12,166.08Z"/><path class="cls-1" d="M266.88,140.91l0-1.88C266.8,140.72,266.82,140.89,266.88,140.91Z"/><path class="cls-1" d="M27,215.78a145.38,145.38,0,0,1-15.87-27.87,140.23,140.23,0,0,0,7.08,14.85,138.48,138.48,0,0,0,8.67,13.51,127.65,127.65,0,0,0,19.16,21.08A133.93,133.93,0,0,1,27,215.78Z"/><path class="cls-1" d="M.68,137.6c-.11,1.82,0,3.6,0,5.35s.06,3.45.22,5.13l.4,4.92L2,157.73c.19,1.55.49,3.07.79,4.56s.57,3,.9,4.41c.76,2.87,1.37,5.7,2.3,8.41A133.41,133.41,0,0,1,.83,140.86C.75,139.79.68,138.65.68,137.6Z"/><path class="cls-1" d="M2.06,153.67l.63,4.85c.19,1.59.55,3.12.82,4.64.52,3.05,1.32,5.94,2,8.78a123.88,123.88,0,0,0,5.64,16A142.22,142.22,0,0,1,2.06,153.67Z"/><path class="cls-1" d="M195.07,249.91c3.5-2.09,6.28-3.81,8.4-5.31,1.07-.74,2-1.35,2.82-1.93l2-1.49c.92-.84,2.2-1.87,3.78-3.44l-1.13.89a120.62,120.62,0,0,1-21.46,13.56l-4.57,2.28-4.18,1.9,3.67-1.43c1.21-.5,2.4-1.06,3.6-1.59C190.44,252.34,192.74,251.08,195.07,249.91Z"/><path class="cls-1" d="M208.31,241.18c-8,7.1,8.85-6.45,0,0Z"/><path class="cls-1" d="M161.68,267.86l-1.28.23-3.72.73Z"/><path class="cls-1" d="M62.76,244.78a125.07,125.07,0,0,0,19,10.68,134.86,134.86,0,0,1-35-23.37c1.34,1.28,2.61,2.65,4,3.84s3.26,2.62,5.34,4.1c1,.75,2.08,1.58,3.19,2.36Z"/><path class="cls-1" d="M214.54,243.13a132,132,0,0,1-54.14,25,135.32,135.32,0,0,1-57.78-1.7,136.94,136.94,0,0,1-48.78-23.46,126.07,126.07,0,0,1-19.35-18.08,130.92,130.92,0,0,1-17.35-25.5A142.55,142.55,0,0,1,10.61,185c-.86-2.45-1.79-4.86-2.55-7.29L7,174.09l-.54-1.8L6,170.49a158,158,0,0,1-4.52-26.41c0,1.67.12,3.3.23,4.9s.18,3.17.39,4.7c-.33-2.25-.5-4.46-.76-6.59s-.3-4.21-.46-6.21c-.08-1.61,0-3.21,0-4.82s0-3.21.13-4.81c.22-3.2.4-6.41.85-9.58s.94-6.34,1.48-9.5c.31-1.57.69-3.13,1-4.69l.53-2.34.64-2.32A133.71,133.71,0,0,1,20.73,67.62,135.27,135.27,0,0,1,78,16.33L83,14l4.8-2c1.57-.7,3.2-1.22,4.87-1.83l2.57-.9c.88-.28,1.8-.53,2.74-.8a132.71,132.71,0,0,1,23-4.63s-.07,0-.29,0a142.28,142.28,0,0,1,24.12-.64A132.21,132.21,0,0,1,168.8,6.71a137.84,137.84,0,0,1,44.9,19.89,134.11,134.11,0,0,1,33.5,33c.86,1.2,1.48,2.12,2,2.87s.78,1.37,1.06,1.92c.57,1.1,1,2,2,3.67a145,145,0,0,1,9.22,19.72A141.49,141.49,0,0,1,267.92,110l-.29.06c.16.65.32,1.29.45,1.91l.33,1.81L269,117c-.66-2-1.3-4.83-2.19-7.51l-1.19-3.87c-.42-1.18-.81-2.24-1.13-3.06-.64-1.65-1-2.37-.88-1.33s.86,3.81,1.85,9.27h0l-.86-3.28-.08-.36s0,0,0,0a69.83,69.83,0,0,0-3.91-10.78c.51,1.58,1.12,3.13,1.55,4.74l1.37,4.81c-.3-.57-.55-.93-.59-.56l-.31-.82-.74-2.61a7.93,7.93,0,0,0-.51-1c-.73-2-1.66-4.34-2.51-6.64s-1.92-4.5-2.8-6.38c-1.85-3.73-3.13-6.15-2.77-4.87.32,1,1.16,2.85,2.31,5.3.54,1.24,1.1,2.65,1.74,4.15.31.75.65,1.52,1,2.32l.89,2.48.37,1.39c-1.55-4.42-1.71-4.36-1.72-3.86s.18,1.42-.87-1.17a124,124,0,0,0-9.74-20.07A130.17,130.17,0,0,0,234.41,55.5c-1.18-1.33-2.3-2.71-3.52-4l-3.65-3.8-3.8-3.6c-1.26-1.2-2.62-2.29-3.92-3.43a131.73,131.73,0,0,0-17-12.14,127.19,127.19,0,0,0-19.46-9.39c-1.23-.45-2.42-1-3.66-1.36A130.44,130.44,0,0,0,159,12.47c-3.41-.67-6.86-1-10.31-1.47l-5.21-.41c-1.74-.14-3.5-.13-5.26-.2l2.81-.12a120.31,120.31,0,0,0-33.82,3.19A128.74,128.74,0,0,0,68.76,29.73,133.1,133.1,0,0,0,36.67,58.28a126,126,0,0,0-28,85.38,122.83,122.83,0,0,1,3.92-38.33l1.21-4.25,1.41-4.16c.24-.69.46-1.39.71-2.07l.8-2c.54-1.34,1-2.69,1.59-4-.59,1.35-1.11,2.74-1.66,4.1l-.81,2L15.16,97l-1.38,4.13-1.16,4.17c-.42,1.36-.74,2.74-1.05,4.13s-.66,2.77-.95,4.16c-.47,2.8-1.09,5.58-1.38,8.4-.17,1.4-.37,2.8-.52,4.19L8.4,130.4l-.15,2.08,0,2.07-.08,4.1A109,109,0,0,0,12.22,168a31.22,31.22,0,0,0,.7,3.65,126.54,126.54,0,0,0,6.24,18,107.75,107.75,0,0,0,8.36,15.5c.08-.05,3,4.57,2.23,2.93l1.13,1.74,1.24,1.71c.84,1.15,1.66,2.33,2.53,3.49,1.82,2.27,3.61,4.64,5.61,6.82s4,4.35,6,6.44c1,1,2.11,2,3.14,2.94L51,232.63,52.57,234l2.72,2.27c.92.73,1.89,1.41,2.84,2.12s1.89,1.41,2.88,2l3,1.91a125.14,125.14,0,0,0,54.08,20.52,129.66,129.66,0,0,0,29.66.33,124.72,124.72,0,0,0,29.67-6.92c1.23-.39,2.43-.92,3.66-1.41s2.5-1,3.74-1.53c2.47-1.15,5-2.23,7.47-3.56a123.4,123.4,0,0,0,14-8.35A122.22,122.22,0,0,1,163.56,261,136.24,136.24,0,0,1,141,264a153.7,153.7,0,0,1-20.28-.38c-1.44-.14-2.87-.26-4.3-.42l-4.28-.64A126,126,0,0,0,163.56,261a124.08,124.08,0,0,0,26.44-9l-.5.25a119.49,119.49,0,0,1-20.56,8,140.25,140.25,0,0,1-20,3.74,169.15,169.15,0,0,1-18.55.83c-1.44,0-2.87-.1-4.24-.13-2.89-.06-5.77-.4-8.65-.68a129.15,129.15,0,0,0,32.16.18,125.67,125.67,0,0,0,19.31-3.94,122.47,122.47,0,0,0,11.82-3.79l-1.18.55c-.84.36-2.07.83-3.33,1.4s-2.57,1.22-3.65,1.67c-2.14,1-3.2,1.63-.51,1a124.59,124.59,0,0,0,20.86-8.35A126,126,0,0,0,211.55,241c2.63-2.08,5.12-4,7.19-5.89,1-.94,2.07-1.78,3-2.64l2.45-2.37c1.52-1.41,2.62-2.65,3.4-3.47l.9-.94.32-.32c.19-.13-.15.3-.9,1.17s-1.87,2.19-3.4,3.66L222,232.68c-.87.88-1.87,1.72-2.87,2.64-2,1.86-4.27,3.66-6.53,5.5a128.26,128.26,0,0,1-13.16,9L197,251.26l-1.88,1a9.44,9.44,0,0,0-1.29.72c1.21-.61,2.46-1.18,3.65-1.84l3.57-2c-2.2,1.36-4.34,2.72-6.4,3.82-1.23.63-2.53,1.39-3.93,2l-4.18,1.91-7.05,2.93c-12,4.92-26.79,7.84-41.67,8.32l-1.77.1-1.81,0-3.74,0c-1.27,0-2.56-.06-3.87-.1l-4-.17a135.49,135.49,0,0,1-16.47-2.21,14.27,14.27,0,0,1-2.56-.44c-1.15-.27-2.05-.52-1.17-.17-2.55-.75-5.23-1.41-7.79-2.33l-3.82-1.28-3.6-1.37c-2.35-.83-4.43-1.8-6.26-2.52s-3.31-1.39-4.4-1.78l-.7-.34c-.67-.35-1.64-.79-2.67-1.29a153.05,153.05,0,0,1-19.85-13,134,134,0,0,1-16.68-15.21l-2.77-3.16-2.64-3.32-1.32-1.68-1.25-1.75c-.83-1.17-1.69-2.34-2.51-3.55L30,218.1c1.47,1.88,2.92,3.76,4.16,5.21l2.51,2.78A132,132,0,0,0,52,240.67a138.88,138.88,0,0,0,17.07,11.55l4.08,2.1,2.63,1.38.74.25a130.66,130.66,0,0,0,18.72,7.41,117.13,117.13,0,0,0,18.18,4.16c2.57.48,5.19.7,7.81,1,1.31.18,2.64.23,4,.33l4,.27,4,.08c1.34,0,2.69.09,4,0,2.69-.09,5.39-.09,8.09-.35A128.52,128.52,0,0,0,177,262.73c-2.47.94-5,1.62-7.54,2.4-1.25.41-2.54.66-3.81,1s-2.54.65-3.81.93a135.7,135.7,0,0,1-15.35,2.39c1.6-.13,3.2-.27,4.77-.53l4.68-.66c3.07-.62,6.13-1.1,9.08-1.9a124.44,124.44,0,0,0,17.09-5.42c1.69-.67,3.36-1.29,5-2l5.14-2.32,5-2.56-4.69,2.34-4.76,2.11a123,123,0,0,0,18.08-10.07,133.1,133.1,0,0,0,21.83-18,134.54,134.54,0,0,0,17.59-22.39,130.68,130.68,0,0,0,19-53.33c0,.75,0,1.61,0,2.57a132.22,132.22,0,0,1-6.41,26.21,147.31,147.31,0,0,1-10.16,22.35c1.29-2.31,2.6-4.39,3.6-6.51s2.08-4.07,2.93-6.12l1.34-3c.45-1,.82-2.08,1.24-3.15l1.26-3.27,1.18-3.52c.05,0,.16,0-.08.78a134.22,134.22,0,0,0,5-21c-.19,2.37-.32,5.06-.74,7.71a63.86,63.86,0,0,1-1.5,6.68c-.35,1.25-.67,2.57-1.07,3.9l-1.3,4a123,123,0,0,1-7.1,16.7c-1.3,2.71-2.87,5.25-4.32,7.85l-2.39,3.77c-.4.62-.79,1.26-1.21,1.87l-1.28,1.82a135.9,135.9,0,0,1-24.13,26.32,131.8,131.8,0,0,1-57.5,27.15,129.15,129.15,0,0,0,28.64-9.73A126.53,126.53,0,0,0,214.54,243.13ZM251.1,72.53,249.55,70l-1.7-2.52.43.8C249.31,69.8,250.29,71.35,251.1,72.53ZM222.67,38.11A146.55,146.55,0,0,1,238.28,54a135.81,135.81,0,0,1,14.27,20.48c.07.07.12.11.14.1a120.84,120.84,0,0,0-12.86-19A134.19,134.19,0,0,0,222.67,38.11Zm-44.91-27.6.29.13s0,0,0-.05ZM5,122a117.85,117.85,0,0,1,5.17-24.69,133.62,133.62,0,0,1,11.44-25.7c3-4.9,5.73-10,10.58-15.94,3-3.76,5.49-6.66,8-9.29,1.19-1.35,2.43-2.57,3.7-3.82s2.53-2.53,4-3.78c-1.52,1.19-3,2.48-4.39,3.77,2.42-2.36,4.72-4.3,6.83-6.18,1.06-.94,2.15-1.77,3.19-2.64s2-1.73,3.12-2.5c2.14-1.57,4.23-3.22,6.63-4.72,1.19-.77,2.4-1.6,3.72-2.37l4.2-2.37a3.86,3.86,0,0,1,1-.75c.62-.38,1.45-.87,2.32-1.31A138.49,138.49,0,0,1,126.22,4.74c1.94-.22,5.79-.59,9.69-.78L143,4.1c2.37.17,4.74.31,7.11.52l-.57-.14L143.74,4c-2-.13-3.92-.1-5.88-.13-.73,0-1.47,0-2.21,0L133.4,4l-4.59.2-4.67.42c-.78.08-1.57.13-2.35.23l-2.35.33a138.51,138.51,0,0,0-18.07,3.66,129.73,129.73,0,0,0-20.18,7.33c-3.23,1.42-6.32,3.1-9.39,4.73l-4.49,2.65c-1.51.85-2.91,1.87-4.36,2.8a134.34,134.34,0,0,0-30,27.4c-.9,1.13-1.75,2.3-2.62,3.45L29,58.94c-.42.59-.81,1.19-1.22,1.79l-2.42,3.59L23.13,68A140.22,140.22,0,0,0,11.42,92.39a106.43,106.43,0,0,0-5.51,22c-.12,1-.35,2.36-.56,3.78A35.16,35.16,0,0,0,5,122Zm3.21,21.09a124.71,124.71,0,0,1,2.07-30,123.24,123.24,0,0,1,9.1-27.82,145.75,145.75,0,0,1,7-13.36,155.05,155.05,0,0,1,10.34-15c3.64-4.52,7-8.36,9.2-10.71s2.93-3.45,1.37-2.37a196.33,196.33,0,0,0-17,20.84,134,134,0,0,0-17.55,35.76A136.86,136.86,0,0,0,8.55,118.9c-.23,1.44-.36,2.84-.54,4.2s-.36,2.66-.41,3.93l-.24,3.63-.1,1.69,0,1.6c0,2.07,0,3.87,0,5.36s.19,2.68.3,3.5C7.77,144.46,8,144.66,8.22,143.05Zm86,114.88a113,113,0,0,1-21.55-9.6A126,126,0,0,0,94.24,257.93ZM30.13,214.5c1.78,2.47,3.82,4.78,5.77,7.17s4.11,4.64,6.36,6.82,4.51,4.33,6.81,6.47,4.78,4.09,7.31,5.95c1.24,1,2.49,1.92,3.8,2.79s2.57,1.81,3.88,2.66l4,2.49c1.31.85,2.71,1.55,4.05,2.33l2,1.14c.68.37,1.38.7,2.07,1,1.39.68,2.76,1.39,4.15,2,2.82,1.22,5.59,2.49,8.44,3.49a139.28,139.28,0,0,0,27.51,7.35,110.82,110.82,0,0,0,27,.87l0-.29c-.61.09-1.22.14-1.83.18l-4.65.06c-1.49,0-2.91-.1-4.31-.14s-2.76-.08-4.11-.24l-4-.38.95,0-1.63-.11c-3.59-.44-7.31-.89-11.58-1.64-2-.26-3.93-.72-5.92-1.13l-2.11-.47-2.09-.57-4.19-1.16-4.13-1.36c-.69-.23-1.38-.44-2.06-.7l-2-.78a128.78,128.78,0,0,1-15.76-7.19l-3.74-2.09c-1.25-.69-2.43-1.48-3.64-2.22-2.44-1.44-4.7-3.1-7-4.65a142.75,142.75,0,0,1-12.63-10.2L45,230.47c-.59-.54-1.13-1.12-1.7-1.67-1.11-1.12-2.24-2.19-3.3-3.31-2.09-2.27-4.18-4.47-6.08-6.83s-3.76-4.76-5.64-7.22-3.58-5.14-5.22-8l1.53,2.69c.57,1,1.21,1.94,1.83,2.93s1.24,2,1.88,2.9Z"/><path class="cls-1" d="M184.33,259.92a131.54,131.54,0,0,0,21.58-11.49c2.67-1.71,5.17-3.66,7.7-5.53s4.9-3.95,7.19-6.11A135.1,135.1,0,0,0,250,199.47a127,127,0,0,0,14.12-46.84c-.18-1-.46-1.1-.89,0a131.31,131.31,0,0,1-15.68,49,126.27,126.27,0,0,1-33.64,38.95l-.62.53a112.21,112.21,0,0,1-23.08,14.47,140.9,140.9,0,0,1-28.44,9.83,129.73,129.73,0,0,1-55.62.41c3.29.83,6.62,1.35,9.92,1.95,3.33.4,6.63.9,10,1.07s6.63.29,9.93.38c3.3-.11,6.6-.11,9.88-.44s6.54-.69,9.81-1.09c3.24-.59,6.49-1.09,9.69-1.9s6.39-1.65,9.58-2.55l4.72-1.58C181.23,261.18,182.76,260.5,184.33,259.92Z"/><path class="cls-1" d="M6,175.1a129.38,129.38,0,0,0,8.15,21.44,133.28,133.28,0,0,0,37.17,46.12,133.13,133.13,0,0,1-28.37-31.85A148.81,148.81,0,0,1,13,193.08,129.79,129.79,0,0,1,6,175.1Z"/><path class="cls-1" d="M64.14,251.59c-1.12-.7-2.26-1.36-3.35-2.09l-3.24-2.21-1.61-1.1L54.38,245l-3.1-2.35a137.13,137.13,0,0,0,26.49,16.76,131.31,131.31,0,0,0,80.32,10.63,130.52,130.52,0,0,0,47.11-18.4l4.79-3.17,4.61-3.35A133,133,0,0,1,150,270.32a140.7,140.7,0,0,1-22.82.49c-1.88-.16-3.77-.23-5.63-.45l-5.58-.68-5.51-.94c-1.84-.29-3.63-.78-5.44-1.16a133.28,133.28,0,0,1-39.8-16.27c-1.47-.94-3-1.79-4.41-2.78l-4.27-2.91c-2.74-2.06-5.49-4.06-8-6.25-.76-.63-1.62-1.32-2.4-2A131.7,131.7,0,0,0,113.7,270,133.47,133.47,0,0,1,64.14,251.59Z"/><path class="cls-1" d="M177,262.73c1.72-.6,3.45-1.1,5.11-1.79l2.89-1.19c1-.39,1.91-.79,2.84-1.24-1.15.54-2.34,1-3.5,1.42l-3.64,1.5Z"/><path class="cls-1" d="M124.36,266.3l-.69-.06a125.33,125.33,0,0,1-17.5-2.77,122.6,122.6,0,0,1-24.39-8,126.13,126.13,0,0,0,22.12,7.74A120.53,120.53,0,0,0,124.36,266.3Z"/><path class="cls-1" d="M76.87,249.75c-1.61-.83-4.71-2.67-6.29-3.58l-2.87-1.63c1.43.9,2.84,1.89,4.34,2.72S75.23,249,76.87,249.75Z"/><path class="cls-1" d="M12.22,168A126.13,126.13,0,0,0,64,242.31c.61.39,1.21.79,1.84,1.16l1.89,1.08c-2.13-1.31-4.13-2.83-6.17-4.26-1-.7-2-1.52-3-2.27s-2-1.52-2.92-2.32l-2.82-2.43-1.41-1.21-1.35-1.27-2.69-2.53c-.89-.85-1.72-1.75-2.58-2.62A135.2,135.2,0,0,1,27.18,203.2a102.29,102.29,0,0,1-6.27-11.11A130.37,130.37,0,0,1,8.69,143.67a126.94,126.94,0,0,0,3.36,23.69Z"/><text></text><path d="M45.51,115.31v18.93l-2,1.91H37.38v18.93H33.56v-42h9.67Zm-8.12,1.61v15.29h4.24V116.92Z"/><path d="M68.2,116.92H61.93V132H67v3.82H61.93v15.41H68.2v3.82H58.11v-42H68.2Z"/><path d="M92.75,116.92H88.69v38.16H84.86V116.92H80.8V113.1H92.75Z"/><path d="M117.29,115.31v16.84l-2,2,2,1.91v19h-3.88V136.15h-4.24v18.93h-3.82v-42H115Zm-8.12,1.61v15.29h4.24V116.92Z"/><path d="M139.45,113.1l2.27,2.21v37.56l-2.27,2.21h-7.29l-2.27-2.21V115.31l2.27-2.21Zm-5.73,3.82v34.34h4.12V116.92Z"/><path d="M163.88,113.1l2.27,2.21V125h-3.88v-8.12h-4.12v34.34h4.12V139.73h-2.21v-3.82h6.09v17l-2.27,2.21h-7.29l-2.27-2.21V115.31l2.27-2.21Z"/><path d="M190.7,115.31v16.84l-2,2,2,1.91v19h-3.88V136.15h-4.24v18.93h-3.82v-42h9.67Zm-8.12,1.61v15.29h4.24V116.92Z"/><path d="M214.52,155.08h-3.64l-1.07-13h-2.75l-1.13,13H202.1l3.58-42h5.2Zm-7.11-16.9h2l-1-12.06Z"/><path d="M237.28,115.31v37.56L235,155.08h-9.67v-42H235Zm-8.12,1.61v34.34h4.24V116.92Z"/><path d="M80.34,218.68v8.46l-1,1,1,1v9.57h-2v-9.51H76.26v9.51H74.34V217.57H79.2Zm-4.08.81v7.68h2.13v-7.68Z"/><path d="M91.47,237.55l-1.14,1.11H86.67l-1.14-1.11v-20h1.92v19.17h2.07V217.57h2Z"/><path d="M101.49,217.51l1.11,1.11v4.83h-1.92v-4H98.61v5.34l4,5.46v7.29l-1.11,1.11H97.8l-1.14-1.11v-4.83h2v4h2.07v-6l-4-5.52v-6.57l1.14-1.11Z"/><path d="M112.62,217.51l1.11,1.11v4.83h-1.92v-4h-2.07v5.34l4,5.46v7.29l-1.11,1.11h-3.69l-1.14-1.11v-4.83h2v4h2.07v-6l-4-5.52v-6.57l1.14-1.11Z"/><path d="M123.42,219.49h-1.29v17.25h1.29v1.92h-4.5v-1.92h1.29V219.49h-1.29v-1.92h4.5Z"/><path d="M134.25,238.66h-1.83l-.54-6.51H130.5l-.57,6.51H128l1.8-21.12h2.61Zm-3.57-8.49h1l-.51-6.06Z"/><path d="M142.23,227.41v-9.87h1.92v21.12h-1.92v-.09l-1.77-10v10.14h-1.92V217.54h1.71l.24,0Z"/><path d="M163.74,219.49h-3.09v7.59h2.49V229h-2.49v9.66h-1.92V217.57h5Z"/><path d="M173.73,217.57l1.14,1.11v18.87l-1.14,1.11h-3.66l-1.14-1.11V218.68l1.14-1.11Zm-2.88,1.92v17.25h2.07V219.49Z"/><path d="M184.86,217.57l1.14,1.11v18.87l-1.14,1.11H181.2l-1.14-1.11V218.68l1.14-1.11ZM182,219.49v17.25h2.07V219.49Z"/><path d="M197.19,218.68v18.87l-1.14,1.11h-4.86V217.57h4.86Zm-4.08.81v17.25h2.13V219.49Z"/><path class="cls-1" d="M51.1,85.25h-.69c0,.06,0,.13,0,.19Z"/><path class="cls-1" d="M51.78,82.9h-.22a.81.81,0,0,1,0,.16Z"/><path class="cls-1" d="M50.42,85.45a3.88,3.88,0,0,1,0,2.15H48.88c-.38.39,0,.78,0,1.17-.38,0-.77,0-.77.2-.25.51.16.85.91,1C50.67,87.75,54.87,87,50.42,85.45Z"/><path class="cls-1" d="M53.48,83.88h-2c-.21.45-.49.9-.29,1.35A5,5,0,0,0,53.48,83.88Z"/><path class="cls-1" d="M209.67,83c0-.12,0-.18.38,0h-.38c0,.11,0,.27-.16.35a36.62,36.62,0,0,1,4.41-.49c.2-.21.39-.42.56-.63-3.75.12-7.5.12-10.56,1.16C206.09,83.42,207.58,83.07,209.67,83Z"/><path class="cls-1" d="M214.77,81.08h.38C214.81,80.89,214.78,81,214.77,81.08Z"/><path class="cls-1" d="M148,85.5a27.06,27.06,0,0,0-6.4,1.5c4.36-.56,8.83-.83,12.15-1.58C151.81,85.46,149.89,85.5,148,85.5Z"/><path class="cls-1" d="M131.36,89.58a17.5,17.5,0,0,0,7.48-.79q-3.44.27-6.84.5C131.79,89.38,131.56,89.47,131.36,89.58Z"/><path class="cls-1" d="M134.53,88.36a22.15,22.15,0,0,0,7-1.36A45.75,45.75,0,0,0,134.53,88.36Z"/><path class="cls-1" d="M186.43,70.38a18.77,18.77,0,0,1,3.36-.88c.26-.27.61-.61,1.08-1h-.31c-1.78.35-3.58.67-5.41,1a12.94,12.94,0,0,0-2.05.84C184.21,70.33,185.32,70.38,186.43,70.38Z"/><path class="cls-1" d="M189.79,69.51c-2.24,2.34,2.32-.25,0,0Z"/><path class="cls-1" d="M178.64,81.79h-.26l-.77.13Z"/><path class="cls-1" d="M157.31,76.25c1.51-.08,3-.22,4.52-.41a60,60,0,0,0-8.74,1c.38,0,.77.2,1.15.2A7.09,7.09,0,0,1,157.31,76.25Z"/><path class="cls-1" d="M190.59,80c-4.17.5-8.25,1.12-12.21,1.82-8,.07-15.79.54-22.76,2.14-6.13,1.57-16.86,1.17-23,4.3a15.19,15.19,0,0,0,1.9.12,19.92,19.92,0,0,0-2.54.93c-10.12.68-20.06,1.1-30.4,1.1-1.53,0-2.68.59-4.22.59l-4.6.11a.16.16,0,0,0,.06.13c-6.31.25-12.52.63-19.06,1.28-3.07.2-6.13,0-9.2,0-1.15,0-1.15-.78-1.92-1a41.58,41.58,0,0,0-8.81-2.15v-.59a5,5,0,0,1-1.39,0c1.65-2.19,5.85-3,1.4-4.49h0l.68-.19h.07v0a5,5,0,0,0,2.3-1.35h-2a1.24,1.24,0,0,0,.14-.82l.18-.16h.55a1.94,1.94,0,0,0,.22-.45c1.76-.84,4.53-1.28,4-2.09-.41-.42-1.69-.06-3.15.19a1.59,1.59,0,0,0-.29-.19c1.92-.2,0-1.37,1.15-1.56,1.53,0,3.06-.2,4.6-.2a175.74,175.74,0,0,0,17.62-.78l.81-.07a63.6,63.6,0,0,1,8.69-.13c-.19.13-.38.26-.58.38a39,39,0,0,0,7-.13,168,168,0,0,1,17.62-1.76c6.42-.16,12.61-.57,19.13-1.22a71.42,71.42,0,0,1-8.06,1c-1.23,0-2.45,0-3.64,0a35.83,35.83,0,0,0,3.64,0c4.72.08,9.57.31,13.21-1.52.39.16.39.36.78.36,2.68,0,5.36.2,7.66-.59,0-.2,1.15-.2.77-.59,2.3-.2,5-.2,7.28-.59a10.37,10.37,0,0,0,3-1c8.22-1,16.36-2.1,25.22-3.1,2.2-.19,4.74-.19,7-.2-3.28.65-6.66,1.19-10.09,1.68C176,69,172.81,69,170.18,70c-.61.19-1.22.36-1.83.53,3.7-.43,7.37-.88,11-1.39,2,.08,4,.22,6,.23l-.12,0q-2.32.38-4.68.71a26.41,26.41,0,0,0-8.25.57c-.3.09-.61.18-.9.3-.61.19-1.22.36-1.83.53q3.42-.4,6.8-.83,2.09-.27,4.17-.56l2.63.13-.28.15c-.77.19-2.91,2.49-1.77,3.08,5.9,0,14.18-1,14.18-.78.38.78-9.73,1.81-9.35,2,.57.09,1.13.16,1.7.23-.54.16-1.06.32-1.55.51-1.15.2-2.68,0-3.45.39-2.68,1.17-5.75.78-8.81,1.56-1.92.59-4.21,1.37-6.51,2.15,0,.39-1.15.2-.77.59-2.16,0-4.66,0-5.59,1.14l-.16,0a1.9,1.9,0,0,0-.6.15c-3.6-.2-6.11.88-9.37,1.64-1.12.1-2.26.17-3.44.17a12.32,12.32,0,0,0,2.68,0l.75-.17c2.91-.26,5.68-.78,8.44-1.2.23-.12.59-.3.93-.43l.6,0a2.05,2.05,0,0,1,.16-.23c2.65-.56,5.64-.76,7.89-1.34,4.25-.67,8.78-.34,13.12-.23q-3.24.49-6.37,1.06c2.62-.33,5.08-.67,7.48-1h3.4c-.72-.09-1.43-.15-2.13-.21,1.43-.23,2.84-.46,4.23-.72a149.94,149.94,0,0,1,23.39-1.09,7.24,7.24,0,0,1-.52.71c-3.75.12-7.5.12-10.56,1.16,2.16,0,3.66-.34,5.75-.38,0,.11,0,.27-.16.35a36.54,36.54,0,0,1,4.41-.49c-.48.51-1,1-1.57,1.51a12.27,12.27,0,0,1-3.07.59c-5,.34-9.66.24-14.56.71-4.36-.07-8.72-.15-13-.11C182.89,81.24,186.8,80.68,190.59,80ZM62,85.08c.39-.08.8-.18,1.2-.28l-.18-.14A1.68,1.68,0,0,0,62,85.08Zm9,.19c-2.63-.34-6.09.11-9.44.42a.47.47,0,0,0,0,.15A70.79,70.79,0,0,0,71,85.27ZM81.5,89.33l-.06-.06s0,.06,0,.09Zm46.69-6.23c-3.06,1-6.9,1-10.73,1.37-1.15,0-2.3.78-3.83.78-1.92.19-3.06.59-4.6.78l1.15.39c-2.68-.19-4.22,1-6.9.59a.86.86,0,0,1-.77.59c-1.91.2-3.83-.2-5.37.2a41.21,41.21,0,0,0-5.36.59c-.38,0-1.15.59-1.92.78-.93.08-1.87.13-2.8.18l.11.16a12.89,12.89,0,0,0,2.31-.14c2.3-.39,5-.78,7.28-1,5.75-.39,11.11-1.17,16.48-2,1.15-.19,2.3-.59,3.45-.78,3.45-.78,7.67-.59,10-2C127,83.49,127.8,83.49,128.19,83.1Zm4.28-8.48a52.63,52.63,0,0,1-12.33,1c-3.07,0-11.88,1.17-10.34,3.52C113.59,74.92,135.14,79.1,132.47,74.62Zm32-3.6a25.41,25.41,0,0,1-5,.58Zm-16.32,8c5-1.37,10.34-1.57,15.32-2.35,3.83-.59,8,.39,11.49-1v-.59l-.38.2c-1.35-.12-2.43-.43-3.56-.59l.2-.05-.34,0a7.86,7.86,0,0,0-2.43,0l-1.25.27c-4.79.35-9.73.65-14.07,1.88-2.68.59-5,1.56-7.66,2.15A12.32,12.32,0,0,0,148.11,79Z"/><path class="cls-1" d="M183.52,79.51c1.66-.24,3.32-.47,5-.67,1.3-.24,2.59-.5,3.88-.78,6.15-1,13.34-.69,19.94-1.17a2.49,2.49,0,0,0,0-1.77c-7.17-.64-14.35.41-21.52.08l-.17.06c-3.07,1.17-8,.78-11.88,1.76-3.83,1.17-7.66,1.56-11.49,2.54C172.8,79.58,178.07,79.16,183.52,79.51Z"/><path class="cls-1" d="M138.83,88.79l4.53-.36c4.23-.46,8-1,11.83-1.76-2.82.1-5.65.17-8.51.17C143.82,87,141.4,88,138.83,88.79Z"/><path class="cls-1" d="M158.31,86.08l-3.11.59c4.18-.15,8.32-.39,12.46-.64,6.8-.8,13.61-1.49,20.41-2.52.77-.11,1.54-.19,2.3-.26-12.66-.22-25.28-.44-36,2l-.63.14c5.11-.13,10.17-.42,15.21-.73C165.39,85.1,161.84,85.55,158.31,86.08Z"/><path class="cls-1" d="M181.92,79.74l1.1,0,1.27-.2-.77-.05Z"/><path class="cls-1" d="M171,74.68l-.14,0c-1.21.11-2.44.21-3.69.3-1.71.35-3.51.66-5.33.89A49.12,49.12,0,0,0,171,74.68Z"/><path class="cls-1" d="M160.37,70h-1.53l-.7.35,1.08,0Z"/><path class="cls-1" d="M137.76,73.16c6.79-.76,13.16-1.56,19.47-2.36l.92-.44a41.82,41.82,0,0,0-12.33,1.21,13.87,13.87,0,0,1-2.68.78,94.21,94.21,0,0,0-10.53,1.37c1.65-.17,3.31-.34,5-.54Z"/><path class="cls-1" d="M207.58,181.4h.64c0-.06,0-.13,0-.19Z"/><path class="cls-1" d="M207,183.75h.2a.86.86,0,0,1,0-.16Z"/><path class="cls-1" d="M208.21,181.2a4.17,4.17,0,0,1,0-2.15h1.42c.35-.39,0-.78,0-1.17.35,0,.71,0,.71-.2.23-.51-.15-.85-.84-1C208,178.9,204.09,179.68,208.21,181.2Z"/><path class="cls-1" d="M205.38,182.77h1.87c.19-.45.46-.9.27-1.35A4.61,4.61,0,0,0,205.38,182.77Z"/><path class="cls-1" d="M60.73,183.62c0,.12,0,.18-.35,0h.35c0-.11,0-.27.14-.35a31.51,31.51,0,0,1-4.08.49c-.18.21-.36.42-.52.63,3.47-.12,6.94-.12,9.78-1.16C64,183.23,62.67,183.58,60.73,183.62Z"/><path class="cls-1" d="M56,185.57h-.35C56,185.76,56,185.69,56,185.57Z"/><path class="cls-1" d="M117.88,181.15a23.53,23.53,0,0,0,5.92-1.5c-4,.56-8.17.83-11.25,1.58C114.32,181.19,116.09,181.15,117.88,181.15Z"/><path class="cls-1" d="M133.26,177.07a15.08,15.08,0,0,0-6.93.79q3.18-.27,6.33-.5C132.86,177.27,133.07,177.18,133.26,177.07Z"/><path class="cls-1" d="M130.32,178.29a19.19,19.19,0,0,0-6.51,1.36A39.6,39.6,0,0,0,130.32,178.29Z"/><path class="cls-1" d="M82.26,196.27a16.34,16.34,0,0,1-3.11.88c-.24.27-.57.61-1,1h.28c1.65-.35,3.32-.67,5-1a11.5,11.5,0,0,0,1.9-.84C84.31,196.32,83.28,196.27,82.26,196.27Z"/><path class="cls-1" d="M79.14,197.14c2.08-2.34-2.15.25,0,0Z"/><path class="cls-1" d="M89.47,184.86h.24l.71-.13Z"/><path class="cls-1" d="M109.22,190.4c-1.4.08-2.8.22-4.18.41a51.64,51.64,0,0,0,8.09-1c-.35,0-.71-.2-1.06-.2A6.19,6.19,0,0,1,109.22,190.4Z"/><path class="cls-1" d="M78.4,186.68c3.86-.5,7.64-1.12,11.31-1.82,7.45-.07,14.63-.54,21.08-2.14,5.68-1.57,15.61-1.17,21.29-4.3a13,13,0,0,0-1.76-.12,17.59,17.59,0,0,0,2.35-.93c9.37-.68,18.57-1.1,28.15-1.1,1.42,0,2.49-.59,3.9-.59l4.26-.11a.16.16,0,0,0-.05-.13c5.85-.25,11.6-.63,17.65-1.28,2.84-.2,5.68,0,8.52,0,1.06,0,1.06.78,1.78,1a36.18,36.18,0,0,0,8.16,2.15v.59a4.25,4.25,0,0,1,1.29,0c-1.53,2.19-5.41,3-1.3,4.49h0l-.63.19h-.07v0a4.61,4.61,0,0,0-2.13,1.35h1.87a1.32,1.32,0,0,0-.13.82l-.16.16h-.51a2,2,0,0,0-.2.45c-1.63.84-4.19,1.28-3.7,2.09.38.42,1.57.06,2.92-.19a1.47,1.47,0,0,0,.27.19c-1.77.2,0,1.37-1.06,1.56-1.42,0-2.84.2-4.26.2a150.81,150.81,0,0,0-16.32.78l-.75.07a54.56,54.56,0,0,1-8,.13c.17-.13.35-.26.54-.38a33.47,33.47,0,0,0-6.51.13,144.47,144.47,0,0,1-16.32,1.76c-5.95.16-11.68.57-17.71,1.22a61.48,61.48,0,0,1,7.46-1c1.14,0,2.27,0,3.37,0a30.73,30.73,0,0,0-3.37,0c-4.37-.08-8.86-.31-12.23,1.52-.36-.16-.36-.36-.72-.36-2.49,0-5-.2-7.1.59,0,.2-1.07.2-.71.59-2.13.2-4.61.2-6.74.59a9.11,9.11,0,0,0-2.76,1c-7.62,1-15.15,2.1-23.35,3.1-2,.19-4.39.19-6.45.2,3-.65,6.17-1.19,9.34-1.68,3.08.14,6,.14,8.46-.86.57-.19,1.13-.36,1.69-.53-3.42.43-6.82.88-10.16,1.39-1.82-.08-3.68-.22-5.51-.23l.11,0q2.15-.38,4.34-.71a22.7,22.7,0,0,0,7.64-.57c.28-.09.56-.18.83-.3.56-.19,1.13-.36,1.69-.53q-3.17.4-6.3.83-1.94.27-3.86.56l-2.43-.13.26-.15c.71-.19,2.7-2.49,1.64-3.08-5.46,0-13.13,1-13.13.78-.35-.78,9-1.81,8.65-2-.52-.09-1-.16-1.57-.23.5-.16,1-.32,1.43-.51,1.06-.2,2.48,0,3.19-.39,2.48-1.17,5.32-.78,8.16-1.56,1.78-.59,3.9-1.37,6-2.15,0-.39,1.07-.2.71-.59,2,0,4.32,0,5.18-1.14l.15,0a1.66,1.66,0,0,0,.56-.15c3.33.2,5.66-.88,8.68-1.64,1-.1,2.1-.17,3.18-.17a10.57,10.57,0,0,0-2.49,0l-.7.17c-2.69.26-5.26.78-7.82,1.2a9.21,9.21,0,0,1-.86.43l-.56,0a2.07,2.07,0,0,1-.15.23c-2.45.56-5.22.76-7.31,1.34-3.94.67-8.13.34-12.15.23q3-.49,5.9-1.06c-2.42.33-4.71.67-6.93,1H82.26c.66.09,1.32.15,2,.21-1.32.23-2.63.46-3.92.72a128.7,128.7,0,0,1-21.66,1.09,7.25,7.25,0,0,1,.48-.71c3.47-.12,6.94-.12,9.78-1.16-2,0-3.39.34-5.32.38,0-.11,0-.27.14-.35a31.45,31.45,0,0,1-4.08.49c.45-.51,1-1,1.46-1.51a10.63,10.63,0,0,1,2.84-.59c4.61-.34,8.95-.24,13.48-.71,4,.07,8.07.15,12,.11C85.53,185.41,81.92,186,78.4,186.68Zm119.06-5.11c-.36.08-.74.18-1.12.28l.17.14A1.5,1.5,0,0,0,197.46,181.57Zm-8.3-.19c2.44.34,5.64-.11,8.74-.42a.5.5,0,0,0,0-.15A60.77,60.77,0,0,0,189.16,181.38Zm-9.73-4.06.06.06s0-.06,0-.09Zm-43.24,6.23c2.84-1,6.39-1,9.94-1.37,1.06,0,2.13-.78,3.55-.78,1.77-.19,2.84-.59,4.26-.78l-1.07-.39c2.49.19,3.9-1,6.39-.59a.81.81,0,0,1,.71-.59c1.77-.2,3.55.2,5-.2a35.45,35.45,0,0,0,5-.59c.36,0,1.06-.59,1.77-.78.87-.08,1.73-.13,2.6-.18l-.11-.16a11.07,11.07,0,0,0-2.14.14c-2.13.39-4.61.78-6.74,1-5.32.39-10.29,1.17-15.26,2-1.06.19-2.13.59-3.19.78-3.19.78-7.1.59-9.22,2C137.26,183.16,136.55,183.16,136.19,183.55Zm-4,8.48a45.24,45.24,0,0,1,11.42-1c2.84,0,11-1.17,9.58-3.52C149.71,191.73,129.76,187.55,132.22,192Zm-29.6,3.6a21.87,21.87,0,0,1,4.61-.58Zm15.12-8c-4.61,1.37-9.58,1.57-14.19,2.35-3.55.59-7.45-.39-10.64,1v.59l.35-.2c1.25.12,2.25.43,3.29.59l-.18.05.32,0a6.75,6.75,0,0,0,2.25,0l1.16-.27c4.44-.35,9-.65,13-1.88,2.48-.59,4.61-1.56,7.1-2.15A10.57,10.57,0,0,0,117.74,187.66Z"/><path class="cls-1" d="M84.95,187.14c-1.53.24-3.08.47-4.64.67-1.2.24-2.4.5-3.59.78-5.7,1-12.35.69-18.47,1.17a2.67,2.67,0,0,0,0,1.77c6.64.64,13.29-.41,19.93-.08l.16-.06c2.84-1.17,7.45-.78,11-1.76,3.55-1.17,7.1-1.56,10.64-2.54C94.87,187.07,90,187.49,84.95,187.14Z"/><path class="cls-1" d="M126.33,177.86l-4.19.36c-3.92.46-7.4,1-11,1.76,2.61-.1,5.23-.17,7.88-.17C121.71,179.6,124,178.62,126.33,177.86Z"/><path class="cls-1" d="M108.3,180.57l2.88-.59c-3.87.15-7.71.39-11.54.64-6.3.8-12.6,1.49-18.9,2.52-.72.11-1.43.19-2.13.26,11.72.22,23.41.44,33.36-2l.58-.14c-4.73.13-9.42.42-14.09.73C101.74,181.55,105,181.1,108.3,180.57Z"/><path class="cls-1" d="M86.43,186.91l-1,0-1.18.2.71.05Z"/><path class="cls-1" d="M96.55,192l.13,0c1.12-.11,2.26-.21,3.41-.3,1.59-.35,3.25-.66,4.94-.89A42.32,42.32,0,0,0,96.55,192Z"/><path class="cls-1" d="M106.39,196.66h1.42l.65-.35-1,0Z"/><path class="cls-1" d="M127.33,193.5c-6.29.76-12.18,1.56-18,2.36l-.85.44a36,36,0,0,0,11.42-1.21,12.14,12.14,0,0,1,2.48-.78,81.14,81.14,0,0,0,9.75-1.37c-1.53.17-3.07.34-4.64.54Z"/><path d="M87.76,30.67v8.46l-1,1,1,1v9.57h-2V41.14H83.68v9.51H81.76V29.56h4.86Zm-4.08.81v7.68H85.8V31.48Z"/><path d="M98,31.48H94.86v7.59h2.55V41H94.86v7.74H98v1.92H92.95V29.56H98Z"/><path d="M108,29.5l1.11,1.11v4.83h-1.92v-4h-2.07v5.34l4,5.46v7.29L108,50.65h-3.69l-1.14-1.11V44.71h2v4h2.07v-6l-4-5.52V30.61l1.14-1.11Z"/><path d="M120.33,31.48h-2V50.65h-1.92V31.48h-2V29.56h6Z"/><path d="M131.16,50.65h-1.83l-.54-6.51h-1.38l-.57,6.51h-1.92l1.8-21.12h2.61Zm-3.57-8.49h1l-.51-6.06Z"/><path d="M141.69,49.54l-1.14,1.11h-3.66l-1.14-1.11v-20h1.92V48.73h2.07V29.56h2Z"/><path d="M152.88,30.67v8.46l-1,1,1,1v9.57h-2V41.14H148.8v9.51h-1.92V29.56h4.86Zm-4.08.81v7.68h2.13V31.48Z"/><path d="M163.71,50.65h-1.83l-.54-6.51H160l-.57,6.51h-1.92l1.8-21.12h2.61Zm-3.57-8.49h1l-.51-6.06Z"/><path d="M172,39.4V29.53h1.92V50.65H172v-.09l-1.77-10V50.65H168.3V29.53H170l.24,0Z"/><path d="M185.1,31.48h-2V50.65h-1.92V31.48h-2V29.56h6Z"/></svg>
